<svg xmlns="http://www.w3.org/2000/svg" xmlns:xlink="http://www.w3.org/1999/xlink" viewBox="0 0 549.27 263.96"><defs><style>.cls-1{fill:url(#무제_그라디언트_23);}.cls-2{fill:url(#무제_그라디언트_23-2);}.cls-3{fill:url(#무제_그라디언트_23-3);}.cls-4{fill:url(#무제_그라디언트_23-4);}.cls-5{fill:url(#무제_그라디언트_23-5);}.cls-6{fill:url(#무제_그라디언트_23-6);}</style><linearGradient id="무제_그라디언트_23" x1="100.62" y1="263.96" x2="100.62" y2="16.65" gradientUnits="userSpaceOnUse"><stop offset="0" stop-color="#006dbb"/><stop offset="0.05" stop-color="#1568ab"/><stop offset="0.19" stop-color="#4c5b82"/><stop offset="0.33" stop-color="#7c4f5e"/><stop offset="0.47" stop-color="#a34641"/><stop offset="0.61" stop-color="#c13e2a"/><stop offset="0.75" stop-color="#d7391a"/><stop offset="0.88" stop-color="#e43610"/><stop offset="1" stop-color="#e8350d"/></linearGradient><linearGradient id="무제_그라디언트_23-2" x1="448.92" y1="260.94" x2="448.92" y2="16.64" xlink:href="#무제_그라디언트_23"/><linearGradient id="무제_그라디언트_23-3" x1="274.71" y1="219.65" x2="274.71" y2="87.69" xlink:href="#무제_그라디언트_23"/><linearGradient id="무제_그라디언트_23-4" x1="460.16" y1="87.28" x2="460.16" y2="16.51" xlink:href="#무제_그라디언트_23"/><linearGradient id="무제_그라디언트_23-5" x1="89.19" y1="87.17" x2="89.19" y2="16.56" xlink:href="#무제_그라디언트_23"/><linearGradient id="무제_그라디언트_23-6" x1="273.33" y1="9.07" x2="273.33" y2="0" xlink:href="#무제_그라디언트_23"/></defs><title>자산 1</title><g id="레이어_2" data-name="레이어 2"><g id="레이어_1-2" data-name="레이어 1"><path class="cls-1" d="M200.76,135.82q0,55.94,0,111.86c0,11.32-9.33,18.61-19.72,15.6-6.31-1.83-10.64-7.69-10.74-15-.13-10.1-.07-20.2-.07-30.3q0-56.13,0-112.24c0-.5,0-1,0-1.49-.3-4.6-3.14-7.39-7.36-7.22-3.95.15-6.62,3.07-6.64,7.52,0,14.84,0,29.68,0,44.52q0,27.12,0,54.24c0,9.26-6.38,16.18-14.94,16.29-8.85.12-15.55-6.57-15.62-16-.14-17.83-.05-35.66-.06-53.5q0-22.82,0-45.64c0-5.21-2.66-8.37-7-8.39s-7.08,3.29-7.08,8.36c0,18.83,0,37.66,0,56.49,0,9.41-6.17,16.21-14.79,16.36-8.9.16-15.55-6.47-15.63-16q-.19-24.32,0-48.63c0-3.48-.75-4.65-4.49-4.62-23.31.18-46.63.08-69.95.07-1,0-2.27.34-2.93-.15-1.36-1-3.37-2.49-3.31-3.68.08-1.49,1.72-3.33,3.17-4.19,1.23-.71,3.16-.28,4.78-.28l73,0c7.22,0,8,.8,7.94,7.9,0,17.46,0,34.91,0,52.37,0,3.28.55,6.3,3.68,8,5,2.78,10.3-.77,10.33-7,.07-17.71,0-35.42,0-53.12,0-1.75,0-3.5,0-5.24.47-8.7,7.06-15,15.54-15s14.87,6.68,14.93,15.51c.1,16.46,0,32.92,0,49.38v49.76a18.92,18.92,0,0,0,.09,2.61,7,7,0,0,0,7.15,6.28,6.74,6.74,0,0,0,6.75-6.66c.19-4.24.07-8.48.07-12.72,0-29.06,0-58.11,0-87.17,0-8.75,5.73-15.15,13.74-15.88,9.35-.84,16.48,5.52,16.78,15.4.26,8.35.1,16.71.1,25.06l0,116.73a28.94,28.94,0,0,0,.1,3.36,6.71,6.71,0,0,0,6.72,6.25c3.68,0,6.65-2.21,6.94-5.94.36-4.46.22-9,.22-13.45q0-105.31,0-210.62c0-1.37,0-2.74,0-4.11.07-2.67,1.07-4.77,4-4.85s4.07,2.06,4.11,4.7c.09,6,.1,12,.1,18q0,48.26,0,96.51Z"/><path class="cls-2" d="M348.65,133.49V24.63a33.08,33.08,0,0,1,.15-4.11c.31-2.4,1.63-4,4.19-3.88s3.81,1.79,3.85,4.21C357,27,357,33.07,357,39.18q0,101.94,0,203.89a18,18,0,0,0,.51,4.81,6.49,6.49,0,0,0,7.16,4.72,6.59,6.59,0,0,0,6.2-6c.24-3.1.12-6.23.12-9.34q0-65.3,0-130.57a39.58,39.58,0,0,1,.19-5.23c1.08-8.36,7.8-14.13,15.91-13.76a15.1,15.1,0,0,1,14.48,15.2c.18,8.72.09,17.46.09,26.18q0,36.1,0,72.21c0,6.63,2.31,9.91,6.94,9.93s7.11-3.23,7.1-9.78q0-47.32,0-94.65c0-9.58,3.89-15.65,11.33-17.6,9.76-2.57,19,4.14,19.09,14.4.23,16.33.08,32.67.1,49,0,2.87-.11,5.74,0,8.6.23,4.88,3.16,7.85,7.37,7.67s6.63-3.11,6.64-7.91q0-26.94,0-53.87c0-6.36,1-7.36,7.36-7.36h76.7c2.89-.11,5,.93,5.09,4.1s-2.1,4.18-5,4.18c-7.36,0-14.71,0-22.07,0-16.71,0-33.42.06-50.13-.08-3,0-3.78.92-3.76,3.83.13,16.34.07,32.68.06,49,0,9.43-6.09,16.17-14.76,16.39-8.85.23-15.59-6.36-15.69-15.94-.19-18.7-.07-37.41-.09-56.11,0-5.33-2.94-8.46-7.53-8.13-4,.28-6.43,3.29-6.44,8.13q0,21.71,0,43.4,0,27.3,0,54.62c0,9.53-6.4,16.39-15.19,16.41s-15.31-6.75-15.34-16.32c-.08-28.93,0-57.87,0-86.8,0-4,0-8,0-12,0-5.21-2.62-8.42-6.88-8.5s-7.15,3.28-7.15,8.65q0,26.19,0,52.38,0,43.59,0,87.17c0,9.72-6.09,16.56-14.82,16.76-8.94.21-15.57-6.43-15.7-16.33-.21-16.21-.09-32.43-.1-48.64q0-31.25,0-62.48Z"/><path class="cls-3" d="M281.83,152.74c0-16.22,0-32.43,0-48.64,0-9.58,6.36-16.31,15.22-16.39,8.69-.08,15.28,6.76,15.32,16.33.09,24.94,0,49.88,0,74.83a37.19,37.19,0,0,0,.12,4.48,6.88,6.88,0,0,0,13.57.68,19.2,19.2,0,0,0,.33-4.09q0-36.48,0-72.95c0-5,1.18-7.11,4.05-7.17s4.28,2.18,4.28,7c0,25.07,0,50.13-.08,75.2,0,10.94-9.51,17.95-19.92,15-6.24-1.78-10.49-7.7-10.53-15.14-.08-18.08,0-36.17,0-54.25q0-11.41,0-22.82c0-5.43-2.66-8.76-7-8.83s-7.07,3.27-7.07,8.67q0,49.77,0,99.53c0,6.51-4.2,12.51-9.94,14.48-6.59,2.27-13.61.58-17.27-5.18a21.42,21.42,0,0,1-3.26-10.79c-.24-32.42-.14-64.85-.15-97.27,0-.75,0-1.5,0-2.25-.19-4.07-2.91-7-6.68-7.18a7.12,7.12,0,0,0-7.34,6.54c-.26,2.6-.1,5.23-.11,7.85q0,47,0,93.91a15.12,15.12,0,0,1-29.5,4.87,23.87,23.87,0,0,1-1-7q-.12-47.89-.06-95.78c0-1.23-.16-2.83.51-3.61,1.08-1.26,2.8-2.72,4.23-2.71,1.15,0,2.56,1.92,3.32,3.29.54,1,.24,2.43.24,3.68q0,47,0,93.91a25.8,25.8,0,0,0,.15,3.73c.61,4.25,3.41,6.75,7.24,6.58,4-.18,6.64-3,6.65-7.48,0-17.08,0-34.17,0-51.26,0-16.34-.13-32.67.06-49,.14-11.94,11.53-19.24,22-14.22,5.84,2.81,8.57,7.74,8.57,14.19q0,47.34,0,94.66c0,1.87-.06,3.74,0,5.61.2,4.59,3.08,7.61,7.12,7.53s6.94-3.08,7-7.66c.07-8.61,0-17.21,0-25.82Q281.82,165.27,281.83,152.74Z"/><path class="cls-4" d="M522.64,87.28C499.8,86.13,477.12,84.07,455,77.9,422,68.69,395.19,50,372.93,24.38c-1.95-2.24-2.85-4.67-.3-6.85s4.61-.56,6.42,1.43c9.6,10.5,19.65,20.51,31.27,28.84,22.22,15.91,47.25,24.71,74.13,27.68,19.16,2.11,38.51,2.46,57.78,3.58.87.06,1.74,0,2.61,0,2.86.06,4.51,1.52,4.42,4.38s-2,3.82-4.56,3.82C537.34,87.29,530,87.28,522.64,87.28Z"/><path class="cls-5" d="M25.49,79.08c21.73-.87,43.27-2.92,64.41-8.37,29.33-7.56,53.89-23,74.48-45,2-2.09,3.85-4.23,5.74-6.39s3.79-3.9,6.68-1.9c2.25,1.54,2.09,4.2-.41,7.16a174.91,174.91,0,0,1-34.5,31.31c-27,18.63-57.4,26.78-89.54,29.33-15.52,1.24-31.12,1.48-46.68,1.94a6.77,6.77,0,0,1-5-2.26c-1.89-2.63.44-5.74,4.26-5.8C11.78,79,18.63,79.08,25.49,79.08Z"/><path class="cls-6" d="M331.27,4.54c0,2.49-2.55,4.53-5.67,4.53H221.05c-3.12,0-5.67-2-5.67-4.53S217.93,0,221.05,0H325.6C328.72,0,331.27,2,331.27,4.54Z"/></g></g></svg>